<?xml version="1.0" encoding="UTF-8" standalone="no"?>
<svg width="102px" height="82px" viewBox="0 0 102 82" version="1.1" xmlns="http://www.w3.org/2000/svg" xmlns:xlink="http://www.w3.org/1999/xlink" xmlns:sketch="http://www.bohemiancoding.com/sketch/ns">
    <!-- Generator: Sketch 3.3.2 (12043) - http://www.bohemiancoding.com/sketch -->
    <title>danger</title>
    <desc>Created with Sketch.</desc>
    <defs></defs>
    <g id="Page-1" stroke="none" stroke-width="1" fill="none" fill-rule="evenodd" sketch:type="MSPage">
        <g id="caution" sketch:type="MSLayerGroup" transform="translate(0.000000, -1.000000)" fill="#484848">
            <g id="danger" sketch:type="MSShapeGroup">
                <g id="Group">
                    <path d="M97.556,82.494 L3.904,82.285 C0.841,82.278 -1.023,78.909 0.599,76.311 L46.447,2.838 C47.961,0.412 51.482,0.381 53.038,2.78 L100.842,76.461 C102.53,79.064 100.658,82.501 97.556,82.494 L97.556,82.494 Z M12.841,77.34 L88.404,77.509 C91.506,77.516 93.378,74.079 91.69,71.476 L53.119,12.026 C51.563,9.627 48.042,9.658 46.528,12.084 L9.535,71.366 C7.914,73.965 9.778,77.333 12.841,77.34 L12.841,77.34 Z" id="Shape"></path>
                    <path d="M54.801,66.18 C54.801,67.431 54.349,68.497 53.444,69.379 C52.54,70.261 51.462,70.702 50.212,70.702 C48.961,70.702 47.884,70.261 46.98,69.379 C46.076,68.497 45.624,67.431 45.624,66.18 C45.624,64.93 46.076,63.852 46.98,62.948 C47.884,62.043 48.961,61.591 50.212,61.591 C51.462,61.591 52.54,62.043 53.444,62.948 C54.349,63.852 54.801,64.93 54.801,66.18 L54.801,66.18 Z" id="Shape"></path>
                    <path d="M54.5,25.788 C54.5,26.905 54.131,30.656 53.395,37.042 C52.658,43.428 52.01,49.602 51.452,55.564 L48.839,55.564 C48.348,49.602 47.739,43.429 47.014,37.042 C46.288,30.656 45.926,26.905 45.926,25.788 C45.926,24.515 46.328,23.444 47.131,22.573 C47.935,21.702 48.962,21.267 50.213,21.267 C51.463,21.267 52.491,21.697 53.294,22.556 C54.098,23.415 54.5,24.493 54.5,25.788 L54.5,25.788 Z" id="Shape"></path>
                </g>
            </g>
        </g>
    </g>
</svg>